<?xml version="1.0" encoding="utf-8"?>
<!-- Generator: Adobe Illustrator 16.0.2, SVG Export Plug-In . SVG Version: 6.00 Build 0)  -->
<!DOCTYPE svg PUBLIC "-//W3C//DTD SVG 1.1//EN" "http://www.w3.org/Graphics/SVG/1.1/DTD/svg11.dtd">
<svg version="1.1" id="Layer_1" xmlns="http://www.w3.org/2000/svg" xmlns:xlink="http://www.w3.org/1999/xlink" x="0px" y="0px"
	 width="240px" height="55px" viewBox="0 0 240 55" enable-background="new 0 0 240 55" xml:space="preserve">
<g>
	<path fill-rule="evenodd" clip-rule="evenodd" fill="#99CF16" d="M20.503,3.75c0.257,0.579,0.596,1.281,0.829,1.749
		c0.425,0.849,0.869,1.625,1.33,2.31c6.761,10.028,17.002,3.978,25.35-0.266c43.303-22.018,23.552,20.984,11.854,41.846
		l-3.372-3.884l-0.068-0.354c2.521-4.765,4.605-8.715,6.051-12.229c4.923-11.967,1.755-25.135-12.078-21.067l-0.003-0.003
		c-1.982,0.583-4.002,1.347-5.973,2.093c-9.459,3.584-19.211,6.572-25.797-8.498c-0.183-0.419-0.504-1.202-0.696-1.685
		C19.336,3.607,20.503,3.75,20.503,3.75"/>
	<path fill-rule="evenodd" clip-rule="evenodd" fill="#7AA612" d="M20.503,3.75c0.596,0.05,1.261,0.103,3.249,0.615
		c5.047,1.301,15.014,4.977,22.813,14.02c10.869,12.604,13.433,30.832,13.3,31.004l-0.018,0.006l-3.353-3.888
		c-0.151-0.797-0.334-1.717-0.467-2.374c-0.047-0.246-0.101-0.509-0.161-0.79l-0.005-0.025l-0.001-0.004l-0.011-0.057
		c-1.054-4.945-3.941-14.896-10.422-22.412C39.57,13.053,32.225,9.946,27.839,8.646c-0.972-0.289-2.112-0.538-3.104-0.723
		c-1-0.188-1.853-0.313-2.229-0.352c-0.405-0.625-0.796-1.32-1.172-2.072C21.1,5.031,20.761,4.329,20.503,3.75"/>
	<path fill-rule="evenodd" clip-rule="evenodd" fill="#319766" d="M55.394,51.684c-0.257-0.579-0.596-1.281-0.83-1.75
		c-0.423-0.848-0.867-1.624-1.33-2.31c-6.759-10.028-17.002-3.979-25.35,0.267C-15.418,69.908,4.333,26.905,16.031,6.045
		l3.371,3.883l0.068,0.355c-2.521,4.764-4.604,8.715-6.051,12.23C8.497,34.478,11.665,47.647,25.498,43.58l0.004,0.003
		c1.981-0.583,4.002-1.349,5.973-2.093c9.459-3.584,19.21-6.573,25.797,8.497c0.183,0.42,0.503,1.202,0.696,1.686
		C56.561,51.824,55.394,51.684,55.394,51.684"/>
	<path fill-rule="evenodd" clip-rule="evenodd" fill="#297F56" d="M55.394,51.684c-0.596-0.051-1.262-0.104-3.249-0.615
		c-5.047-1.302-15.013-4.978-22.813-14.02C18.463,24.444,15.899,6.216,16.031,6.045l0.019-0.006l3.353,3.888
		c0.151,0.797,0.334,1.716,0.467,2.374c0.048,0.247,0.1,0.51,0.16,0.791l0.005,0.025l0.001,0.004l0.012,0.057
		c1.054,4.945,3.939,14.896,10.422,22.411c5.857,6.791,13.202,9.899,17.589,11.199c0.972,0.29,2.112,0.537,3.104,0.724
		c1,0.187,1.853,0.313,2.229,0.352c0.406,0.625,0.797,1.32,1.172,2.071C54.798,50.402,55.137,51.104,55.394,51.684"/>
	<path fill-rule="evenodd" clip-rule="evenodd" fill="#242D30" d="M98.687,21.4l9.912-15.185h-7.502l-7.092,11.048L86.913,6.215
		H79.41L89.276,21.4L79.41,36.677h7.547l7.047-11.139l7.047,11.139h7.547L98.687,21.4z M119.237,31.858
		c2.91,0,4.849-1.471,5.82-4.411l5.547,1.41c-0.638,2.576-2.008,4.637-4.116,6.184c-2.105,1.545-4.523,2.318-7.25,2.318
		c-3.396,0-6.267-1.12-8.617-3.363c-2.349-2.242-3.523-5.123-3.523-8.641c0-3.515,1.174-6.403,3.523-8.66
		c2.35-2.259,5.221-3.387,8.617-3.387c2.667,0,5.04,0.765,7.115,2.295c2.077,1.531,3.494,3.555,4.252,6.071l-5.775,1.636
		c-0.757-3.001-2.621-4.5-5.591-4.5c-1.88,0-3.403,0.605-4.569,1.818c-1.167,1.213-1.751,2.789-1.751,4.728
		c0,1.94,0.584,3.509,1.751,4.707C115.834,31.26,117.357,31.858,119.237,31.858 M136.511,3.623c-1.031,0-1.895,0.357-2.593,1.069
		c-0.695,0.712-1.044,1.554-1.044,2.524c0,1,0.34,1.833,1.023,2.5c0.682,0.667,1.554,1,2.613,1c1.03,0,1.895-0.333,2.592-1
		c0.697-0.667,1.045-1.5,1.045-2.5c0-0.97-0.348-1.812-1.045-2.524S137.541,3.623,136.511,3.623 M139.511,13.99h-6.002v22.687h6.002
		V13.99z M159.015,30.676c-1.363,0.728-2.623,1.092-3.773,1.092c-2.213,0-3.319-1.304-3.319-3.91V18.9h7.411V13.99h-7.411V7.125
		h-6.002v6.865h-4.865V18.9h4.865v9.411c0,3.032,0.789,5.296,2.363,6.797c1.578,1.501,3.759,2.251,6.548,2.251
		c1.85,0,3.821-0.561,5.912-1.683L159.015,30.676z M182.972,24.902v2.044h-17.276c0.304,1.607,0.977,2.889,2.024,3.845
		c1.044,0.953,2.264,1.431,3.659,1.431c2.577,0,4.455-0.999,5.638-3l5.364,1.137c-0.97,2.303-2.407,4.046-4.318,5.228
		c-1.91,1.183-4.137,1.773-6.684,1.773c-3.273,0-6.03-1.12-8.273-3.363c-2.244-2.242-3.365-5.123-3.365-8.641
		c0-3.515,1.128-6.403,3.387-8.66c2.258-2.259,5.039-3.387,8.343-3.387c3.094,0,5.753,1.083,7.98,3.251
		C181.678,18.726,182.852,21.507,182.972,24.902 M171.47,18.536c-1.241,0-2.402,0.364-3.478,1.092
		c-1.076,0.727-1.779,1.758-2.115,3.092h10.958c-0.364-1.395-1.03-2.439-2-3.139C173.865,18.886,172.743,18.536,171.47,18.536"/>
	<path fill-rule="evenodd" clip-rule="evenodd" fill="#242D30" d="M216.94,37.358L203.756,6.897h-5.773l-13.185,30.461h6.683
		l2.683-6.5h13.458l2.638,6.5H216.94z M205.303,25.267h-8.864l4.453-10.867L205.303,25.267z M239,6.897l-13.141,30.461h-5.955
		L206.763,6.897h6.821l9.275,22.188l9.32-22.188H239z"/>
	<path fill-rule="evenodd" clip-rule="evenodd" fill="#242D30" d="M80.958,40.985h-1.34v8.392h1.34V40.985z M86.393,42.989
		c-0.911,0-1.628,0.313-2.154,0.939v-0.765h-1.301v6.213h1.301v-2.869c0-0.759,0.165-1.337,0.494-1.729
		c0.331-0.392,0.784-0.588,1.36-0.588c0.443,0,0.799,0.154,1.071,0.463c0.271,0.31,0.407,0.718,0.407,1.229v3.494h1.315v-3.758
		c0-0.776-0.229-1.41-0.689-1.897C87.737,43.233,87.137,42.989,86.393,42.989 M94.435,47.985c-0.343,0.227-0.693,0.34-1.053,0.34
		c-0.317,0-0.567-0.1-0.751-0.294c-0.184-0.198-0.275-0.483-0.275-0.859v-2.931h2.128v-1.077h-2.128v-1.928h-1.304v1.928h-1.338
		v1.077h1.338v3.018c0,0.752,0.201,1.323,0.603,1.71c0.4,0.388,0.947,0.583,1.641,0.583c0.492,0,1.006-0.159,1.541-0.477
		L94.435,47.985z M101.51,46.132c-0.033-0.918-0.348-1.672-0.946-2.259c-0.597-0.591-1.316-0.884-2.16-0.884
		c-0.902,0-1.663,0.307-2.286,0.92c-0.622,0.613-0.933,1.405-0.933,2.373c0,0.962,0.311,1.747,0.933,2.355
		c0.623,0.608,1.367,0.914,2.235,0.914c0.702,0,1.314-0.166,1.835-0.495c0.522-0.329,0.908-0.816,1.159-1.459l-1.165-0.25
		c-0.358,0.719-0.967,1.077-1.829,1.077c-0.476,0-0.893-0.168-1.252-0.501c-0.358-0.335-0.568-0.781-0.627-1.34h5.036V46.132z
		 M98.404,44.142c0.441,0,0.821,0.129,1.139,0.388c0.317,0.259,0.526,0.634,0.626,1.127h-3.657c0.093-0.476,0.322-0.847,0.69-1.113
		C97.569,44.275,97.97,44.142,98.404,44.142 M108.861,43.164h-1.264v0.613c-0.494-0.516-1.208-0.775-2.143-0.775
		c-0.818,0-1.53,0.288-2.135,0.863c-0.606,0.578-0.91,1.286-0.91,2.13c0,0.842,0.306,1.558,0.915,2.143
		c0.61,0.585,1.32,0.875,2.13,0.875c0.935,0,1.649-0.259,2.143-0.777v0.402c0,0.6-0.179,1.074-0.534,1.421
		c-0.354,0.347-0.828,0.52-1.421,0.52c-0.476,0-0.862-0.087-1.159-0.264c-0.295-0.175-0.564-0.453-0.808-0.838l-1.065,0.789
		c0.535,0.994,1.545,1.489,3.031,1.489c0.986,0,1.769-0.258,2.349-0.774c0.579-0.52,0.87-1.236,0.87-2.156V43.164z M105.667,47.886
		c-0.567,0-1.041-0.176-1.421-0.526c-0.379-0.351-0.57-0.806-0.57-1.364c0-0.568,0.19-1.024,0.57-1.371
		c0.38-0.347,0.854-0.521,1.421-0.521c0.526,0,0.979,0.176,1.359,0.525c0.38,0.352,0.571,0.806,0.571,1.366
		c0,0.552-0.19,1.003-0.571,1.358C106.646,47.708,106.194,47.886,105.667,47.886 M114.51,43.088c-1.011,0-1.799,0.468-2.367,1.404
		v-1.328h-1.303v6.213h1.303v-2.193c0-0.877,0.201-1.563,0.601-2.061c0.401-0.496,0.985-0.744,1.753-0.744
		c0.175,0,0.296,0.005,0.364,0.013l0.087-1.253C114.84,43.105,114.693,43.088,114.51,43.088 M122.063,43.164h-1.303v0.715
		c-0.568-0.594-1.319-0.89-2.255-0.89c-0.834,0-1.557,0.309-2.166,0.927c-0.609,0.617-0.915,1.402-0.915,2.354
		c0,0.96,0.303,1.745,0.908,2.361c0.605,0.612,1.33,0.92,2.173,0.92c0.936,0,1.687-0.297,2.255-0.891v0.716h1.303V43.164z
		 M118.718,48.398c-0.584,0-1.069-0.192-1.453-0.581c-0.384-0.39-0.577-0.904-0.577-1.547s0.193-1.159,0.577-1.547
		c0.384-0.389,0.868-0.582,1.453-0.582c0.543,0,1.019,0.197,1.428,0.595c0.409,0.396,0.614,0.907,0.614,1.534
		c0,0.626-0.205,1.138-0.614,1.534C119.736,48.202,119.261,48.398,118.718,48.398 M127.772,47.985
		c-0.342,0.227-0.692,0.34-1.051,0.34c-0.319,0-0.568-0.1-0.753-0.294c-0.184-0.198-0.274-0.483-0.274-0.859v-2.931h2.128v-1.077
		h-2.128v-1.928h-1.304v1.928h-1.34v1.077h1.34v3.018c0,0.752,0.2,1.323,0.603,1.71c0.4,0.388,0.947,0.583,1.641,0.583
		c0.491,0,1.006-0.159,1.54-0.477L127.772,47.985z M134.849,46.132c-0.033-0.918-0.348-1.672-0.946-2.259
		c-0.596-0.591-1.316-0.884-2.159-0.884c-0.901,0-1.665,0.307-2.286,0.92c-0.622,0.613-0.934,1.405-0.934,2.373
		c0,0.962,0.312,1.747,0.934,2.355c0.621,0.608,1.367,0.914,2.235,0.914c0.701,0,1.313-0.166,1.835-0.495s0.908-0.816,1.158-1.459
		l-1.164-0.25c-0.358,0.719-0.969,1.077-1.829,1.077c-0.476,0-0.893-0.168-1.252-0.501c-0.36-0.335-0.567-0.781-0.627-1.34h5.035
		V46.132z M131.743,44.142c0.443,0,0.821,0.129,1.141,0.388c0.316,0.259,0.525,0.634,0.624,1.127h-3.656
		c0.092-0.476,0.322-0.847,0.689-1.113C130.908,44.275,131.309,44.142,131.743,44.142 M142.4,40.357h-1.314v3.521
		c-0.577-0.594-1.328-0.89-2.254-0.89c-0.836,0-1.558,0.309-2.168,0.927c-0.608,0.617-0.914,1.402-0.914,2.354
		s0.306,1.736,0.914,2.354c0.61,0.617,1.332,0.927,2.168,0.927c0.918,0,1.669-0.292,2.254-0.876v0.701h1.314V40.357z
		 M139.046,48.398c-0.578,0-1.059-0.192-1.441-0.581c-0.384-0.39-0.578-0.904-0.578-1.547c0-0.635,0.194-1.148,0.578-1.541
		c0.383-0.393,0.863-0.588,1.441-0.588c0.541,0,1.017,0.197,1.426,0.595c0.41,0.396,0.614,0.907,0.614,1.534
		c0,0.635-0.204,1.148-0.614,1.541C140.063,48.204,139.587,48.398,139.046,48.398 M154.011,42.2v-1.215h-7.251V42.2h2.943v7.177
		h1.353V42.2H154.011z M159.936,46.132v0.452h-5.034c0.057,0.559,0.267,1.005,0.624,1.34c0.359,0.333,0.777,0.501,1.253,0.501
		c0.86,0,1.47-0.358,1.828-1.077l1.166,0.25c-0.251,0.643-0.638,1.13-1.159,1.459s-1.134,0.495-1.835,0.495
		c-0.868,0-1.612-0.306-2.236-0.914c-0.621-0.608-0.932-1.394-0.932-2.355c0-0.968,0.311-1.76,0.932-2.373
		c0.624-0.613,1.385-0.92,2.287-0.92c0.843,0,1.563,0.293,2.159,0.884C159.586,44.46,159.901,45.214,159.936,46.132 M156.829,44.142
		c-0.435,0-0.835,0.134-1.202,0.401c-0.368,0.267-0.597,0.638-0.689,1.113h3.657c-0.1-0.493-0.31-0.868-0.626-1.127
		C157.651,44.271,157.271,44.142,156.829,44.142 M164.119,48.35c-0.585,0-1.066-0.19-1.441-0.569
		c-0.375-0.381-0.563-0.884-0.563-1.51c0-0.609,0.19-1.109,0.569-1.497c0.38-0.388,0.858-0.582,1.436-0.582
		c0.432,0,0.81,0.112,1.125,0.338c0.319,0.225,0.536,0.56,0.651,1.002l1.253-0.364c-0.191-0.659-0.567-1.188-1.127-1.583
		c-0.56-0.396-1.193-0.595-1.902-0.595c-0.911,0-1.687,0.309-2.326,0.927c-0.638,0.617-0.958,1.402-0.958,2.354
		c0,0.96,0.32,1.745,0.958,2.361c0.64,0.612,1.415,0.92,2.326,0.92c0.725,0,1.37-0.201,1.935-0.601
		c0.563-0.402,0.928-0.933,1.095-1.592l-1.203-0.313C165.654,47.915,165.045,48.35,164.119,48.35 M172.059,42.989
		c-0.911,0-1.63,0.313-2.154,0.939v-3.571h-1.304v9.02h1.304v-2.869c0-0.759,0.165-1.337,0.494-1.729
		c0.33-0.392,0.782-0.588,1.358-0.588c0.442,0,0.801,0.154,1.071,0.463c0.271,0.31,0.407,0.718,0.407,1.229v3.494h1.314v-3.758
		c0-0.776-0.229-1.41-0.688-1.897C173.402,43.233,172.801,42.989,172.059,42.989 M179.836,42.989c-0.911,0-1.629,0.313-2.155,0.939
		v-0.765h-1.302v6.213h1.302v-2.869c0-0.759,0.165-1.337,0.495-1.729c0.329-0.392,0.783-0.588,1.358-0.588
		c0.444,0,0.801,0.154,1.07,0.463c0.271,0.31,0.407,0.718,0.407,1.229v3.494h1.315v-3.758c0-0.776-0.229-1.41-0.688-1.897
		C181.18,43.233,180.578,42.989,179.836,42.989 M186.949,43.026c-0.937,0-1.726,0.303-2.374,0.908
		c-0.647,0.605-0.97,1.384-0.97,2.336s0.322,1.731,0.97,2.342c0.648,0.609,1.438,0.914,2.374,0.914c0.926,0,1.711-0.305,2.355-0.914
		c0.643-0.61,0.963-1.39,0.963-2.342s-0.318-1.73-0.958-2.336C188.672,43.329,187.885,43.026,186.949,43.026 M186.949,48.398
		c-0.567,0-1.055-0.196-1.459-0.594c-0.406-0.396-0.607-0.908-0.607-1.534c0-0.627,0.201-1.138,0.607-1.534
		c0.404-0.397,0.892-0.595,1.459-0.595c0.552,0,1.03,0.197,1.44,0.595c0.407,0.396,0.613,0.907,0.613,1.534
		c0,0.626-0.206,1.138-0.613,1.534C187.979,48.202,187.501,48.398,186.949,48.398 M193.022,40.357h-1.303v9.019h1.303V40.357z
		 M197.808,43.026c-0.937,0-1.727,0.303-2.374,0.908s-0.97,1.384-0.97,2.336s0.322,1.731,0.97,2.342
		c0.647,0.609,1.438,0.914,2.374,0.914c0.927,0,1.71-0.305,2.354-0.914c0.642-0.61,0.964-1.39,0.964-2.342s-0.32-1.73-0.959-2.336
		C199.529,43.329,198.742,43.026,197.808,43.026 M197.808,48.398c-0.568,0-1.055-0.196-1.461-0.594
		c-0.403-0.396-0.606-0.908-0.606-1.534c0-0.627,0.203-1.138,0.606-1.534c0.406-0.397,0.893-0.595,1.461-0.595
		c0.55,0,1.03,0.197,1.439,0.595c0.409,0.396,0.614,0.907,0.614,1.534c0,0.626-0.205,1.138-0.614,1.534
		C198.838,48.202,198.357,48.398,197.808,48.398 M208.49,43.164h-1.266v0.613c-0.491-0.516-1.205-0.775-2.141-0.775
		c-0.817,0-1.531,0.288-2.137,0.863c-0.604,0.578-0.907,1.286-0.907,2.13c0,0.842,0.306,1.558,0.913,2.143
		c0.61,0.585,1.32,0.875,2.131,0.875c0.936,0,1.649-0.259,2.141-0.777v0.402c0,0.6-0.178,1.074-0.531,1.421
		c-0.355,0.347-0.829,0.52-1.421,0.52c-0.476,0-0.862-0.087-1.16-0.264c-0.297-0.175-0.565-0.453-0.807-0.838l-1.065,0.789
		c0.534,0.994,1.545,1.489,3.032,1.489c0.983,0,1.767-0.258,2.346-0.774c0.582-0.52,0.872-1.236,0.872-2.156V43.164z
		 M205.296,47.886c-0.568,0-1.042-0.176-1.421-0.526c-0.38-0.351-0.569-0.806-0.569-1.364c0-0.568,0.189-1.024,0.569-1.371
		c0.379-0.347,0.853-0.521,1.421-0.521c0.525,0,0.979,0.176,1.358,0.525c0.381,0.352,0.57,0.806,0.57,1.366
		c0,0.552-0.189,1.003-0.57,1.358C206.275,47.708,205.821,47.886,205.296,47.886 M211.221,40.484c-0.243,0-0.442,0.079-0.603,0.236
		c-0.158,0.159-0.238,0.353-0.238,0.577c0,0.234,0.08,0.426,0.238,0.577c0.16,0.149,0.359,0.225,0.603,0.225
		c0.241,0,0.44-0.075,0.594-0.225c0.156-0.151,0.232-0.343,0.232-0.577c0-0.225-0.079-0.418-0.238-0.577
		C211.65,40.563,211.454,40.484,211.221,40.484 M211.872,43.164h-1.303v6.212h1.303V43.164z M219.723,46.132
		c-0.031-0.918-0.347-1.672-0.944-2.259c-0.597-0.591-1.316-0.884-2.16-0.884c-0.901,0-1.664,0.307-2.285,0.92
		c-0.623,0.613-0.934,1.405-0.934,2.373c0,0.962,0.311,1.747,0.934,2.355c0.621,0.608,1.366,0.914,2.234,0.914
		c0.701,0,1.313-0.166,1.836-0.495c0.521-0.329,0.907-0.816,1.158-1.459l-1.164-0.25c-0.359,0.719-0.97,1.077-1.83,1.077
		c-0.476,0-0.893-0.168-1.253-0.501c-0.358-0.335-0.567-0.781-0.625-1.34h5.033V46.132z M216.618,44.142
		c0.442,0,0.822,0.129,1.14,0.388s0.525,0.634,0.626,1.127h-3.657c0.093-0.476,0.321-0.847,0.689-1.113
		C215.784,44.275,216.184,44.142,216.618,44.142 M220.638,47.71c0.076,0.602,0.367,1.059,0.878,1.372
		c0.509,0.313,1.13,0.47,1.865,0.47c0.793,0,1.429-0.175,1.903-0.526c0.477-0.35,0.714-0.844,0.714-1.478
		c0-0.436-0.142-0.795-0.427-1.084c-0.283-0.288-0.679-0.485-1.189-0.595l-1.477-0.324c-0.502-0.118-0.752-0.352-0.752-0.702
		c0-0.234,0.094-0.428,0.282-0.584c0.188-0.153,0.462-0.23,0.82-0.23c0.393,0,0.716,0.092,0.964,0.275
		c0.251,0.185,0.4,0.43,0.452,0.739l1.239-0.264c-0.116-0.534-0.407-0.967-0.871-1.295c-0.463-0.33-1.046-0.495-1.747-0.495
		c-0.742,0-1.339,0.182-1.784,0.545c-0.447,0.362-0.671,0.836-0.671,1.42c0,0.878,0.564,1.441,1.692,1.692l1.353,0.274
		c0.558,0.125,0.84,0.372,0.84,0.739c0,0.25-0.111,0.451-0.333,0.601c-0.223,0.151-0.52,0.226-0.896,0.226
		c-0.435,0-0.791-0.088-1.071-0.263c-0.279-0.175-0.441-0.438-0.482-0.79L220.638,47.71z"/>
</g>
</svg>
